<?xml version="1.0" encoding="iso-8859-1"?>
<!-- Generator: Adobe Illustrator 19.0.0, SVG Export Plug-In . SVG Version: 6.00 Build 0)  -->
<svg version="1.1" id="Capa_1" xmlns="http://www.w3.org/2000/svg" xmlns:xlink="http://www.w3.org/1999/xlink" x="0px" y="0px"
	 viewBox="0 0 288.312 288.312" style="enable-background:new 0 0 288.312 288.312;" xml:space="preserve">
<g>
	<path id="Subdirectory_Arrow_Up_Left" fill="#FFFFFF90" d="M127.353,3.555c-4.704-4.74-12.319-4.74-17.011,0L15.314,99.653
		c-4.74,4.788-4.547,12.884,0.313,17.48l94.715,95.785c4.704,4.74,12.319,4.74,17.011,0c4.704-4.74,4.704-12.427,0-17.167
		l-74.444-75.274h199.474v155.804c0,6.641,5.39,12.03,12.03,12.03c6.641,0,12.03-5.39,12.03-12.03V108.231
		c0-6.641-5.39-12.03-12.03-12.03H52.704l74.648-75.49C132.056,15.982,132.056,8.295,127.353,3.555z"/>	
</g>
</svg>
